<?xml version="1.0" encoding="utf-8"?>
<!-- Generator: Adobe Illustrator 22.0.0, SVG Export Plug-In . SVG Version: 6.00 Build 0)  -->
<svg version="1.1" id="Capa_1" xmlns="http://www.w3.org/2000/svg" xmlns:xlink="http://www.w3.org/1999/xlink" x="0px" y="0px"
	 viewBox="0 0 511 511" style="enable-background:new 0 0 511 511;" xml:space="preserve">
<style type="text/css">
	.st0{fill:#222B37;}
	.st1{fill:#3399CC;}
</style>
<g>
	<path class="st0" d="M359.5,0h-208C129.7,0,112,17.7,112,39.5v432c0,21.8,17.7,39.5,39.5,39.5h208c21.8,0,39.5-17.7,39.5-39.5v-432
		C399,17.7,381.3,0,359.5,0z M127,79h257v49H127V79z M127,143h257v289H127V143z M151.5,15h208C373,15,384,26,384,39.5V64H127V39.5
		C127,26,138,15,151.5,15z M359.5,496h-208c-13.5,0-24.5-11-24.5-24.5V447h257v24.5C384,485,373,496,359.5,496z"/>
	<path class="st0" d="M231.5,47h48c4.1,0,7.5-3.4,7.5-7.5s-3.4-7.5-7.5-7.5h-48c-4.1,0-7.5,3.4-7.5,7.5S227.4,47,231.5,47z"/>
	<path class="st0" d="M271.5,464h-32c-4.1,0-7.5,3.4-7.5,7.5s3.4,7.5,7.5,7.5h32c4.1,0,7.5-3.4,7.5-7.5S275.6,464,271.5,464z"/>
	<path class="st0" d="M199.5,47c2,0,3.9-0.8,5.3-2.2c1.4-1.4,2.2-3.3,2.2-5.3s-0.8-3.9-2.2-5.3c-1.4-1.4-3.3-2.2-5.3-2.2
		s-3.9,0.8-5.3,2.2c-1.4,1.4-2.2,3.3-2.2,5.3s0.8,3.9,2.2,5.3C195.6,46.2,197.5,47,199.5,47z"/>
	<path class="st1" d="M170.2,308.8c1.5,1.5,3.4,2.2,5.3,2.2s3.8-0.7,5.3-2.2l56-56c2.9-2.9,2.9-7.7,0-10.6l-56-56
		c-2.9-2.9-7.7-2.9-10.6,0c-2.9,2.9-2.9,7.7,0,10.6l50.7,50.7l-50.7,50.7C167.3,301.1,167.3,305.9,170.2,308.8z"/>
	<path class="st1" d="M247.5,311h80c4.1,0,7.5-3.4,7.5-7.5s-3.4-7.5-7.5-7.5h-80c-4.1,0-7.5,3.4-7.5,7.5S243.4,311,247.5,311z"/>
	<path class="st1" d="M191.5,352h-32c-8.5,0-15.5,7-15.5,15.5v32c0,8.5,7,15.5,15.5,15.5h32c8.5,0,15.5-7,15.5-15.5v-32
		C207,359,200,352,191.5,352z M192,399.5c0,0.3-0.2,0.5-0.5,0.5h-32c-0.3,0-0.5-0.2-0.5-0.5v-32c0-0.3,0.2-0.5,0.5-0.5h32
		c0.3,0,0.5,0.2,0.5,0.5V399.5z"/>
	<path class="st1" d="M271.5,352h-32c-8.5,0-15.5,7-15.5,15.5v32c0,8.5,7,15.5,15.5,15.5h32c8.5,0,15.5-7,15.5-15.5v-32
		C287,359,280,352,271.5,352z M272,399.5c0,0.3-0.2,0.5-0.5,0.5h-32c-0.3,0-0.5-0.2-0.5-0.5v-32c0-0.3,0.2-0.5,0.5-0.5h32
		c0.3,0,0.5,0.2,0.5,0.5V399.5z"/>
	<path class="st1" d="M351.5,352h-32c-8.5,0-15.5,7-15.5,15.5v32c0,8.5,7,15.5,15.5,15.5h32c8.5,0,15.5-7,15.5-15.5v-32
		C367,359,360,352,351.5,352z M352,399.5c0,0.3-0.2,0.5-0.5,0.5h-32c-0.3,0-0.5-0.2-0.5-0.5v-32c0-0.3,0.2-0.5,0.5-0.5h32
		c0.3,0,0.5,0.2,0.5,0.5V399.5z"/>
	<path class="st0" d="M159.5,96h-8c-4.1,0-7.5,3.4-7.5,7.5s3.4,7.5,7.5,7.5h8c4.1,0,7.5-3.4,7.5-7.5S163.6,96,159.5,96z"/>
	<path class="st0" d="M359.5,96h-8c-4.1,0-7.5,3.4-7.5,7.5s3.4,7.5,7.5,7.5h8c4.1,0,7.5-3.4,7.5-7.5S363.6,96,359.5,96z"/>
	<path class="st0" d="M318.5,96h-127c-4.1,0-7.5,3.4-7.5,7.5s3.4,7.5,7.5,7.5h127c4.1,0,7.5-3.4,7.5-7.5S322.6,96,318.5,96z"/>
</g>
</svg>
