<?xml version="1.0" encoding="utf-8"?>
<!-- Generator: Adobe Illustrator 22.0.0, SVG Export Plug-In . SVG Version: 6.00 Build 0)  -->
<svg version="1.1" id="Capa_1" xmlns="http://www.w3.org/2000/svg" xmlns:xlink="http://www.w3.org/1999/xlink" x="0px" y="0px"
	 viewBox="0 0 511 511" style="enable-background:new 0 0 511 511;" xml:space="preserve">
<style type="text/css">
	.st0{fill:#222B37;}
	.st1{fill:#3399CC;}
</style>
<g>
	<path class="st0" d="M225.4,448.3h-147c-13.4,0-24.7-11.3-24.7-24.7V38.2c0-13.4,11.3-24.7,24.7-24.7h221v41.1
		c0,21.6,18.5,40.1,40.1,40.1h41.1v153.1c0,4.1,3.1,7.2,7.2,7.2s7.2-3.1,7.2-7.2V86.5c0,0,0,0,0-1c0,0,0,0,0-1l0,0c0,0,0,0,0-1l0,0
		c0,0,0,0,0-1l0,0c0,0,0,0,0-1l0,0l0,0l0,0l0,0l0,0c0,0,0,0,0-1L312.8,0.2c0,0,0,0-1,0l0,0l0,0l0,0l0,0l0,0c0,0,0,0-1,0l0,0
		c0,0,0,0-1,0l0,0c0,0,0,0-1,0l0,0c0,0,0,0-1,0c0,0,0,0-1,0H78.4c-22.6-2.1-40.1,15.4-40.1,38v386.5c0,21.6,18.5,40.1,40.1,40.1h147
		c4.1,0,7.2-3.1,7.2-7.2C232.6,453.4,229.5,448.3,225.4,448.3z M314.8,53.6V23.8l55.5,54.5h-30.8C326.1,78.3,314.8,68,314.8,53.6z"
		/>
	<path class="st0" d="M355.9,328c-36,0-64.8,28.8-64.8,63.7s28.8,63.7,64.8,63.7s64.8-28.8,64.8-63.7S391.9,328,355.9,328z
		 M355.9,441.1c-27.8,0-49.3-21.6-49.3-48.3c0-26.7,22.6-48.3,49.3-48.3c26.7,0,49.3,21.6,49.3,48.3
		C406.3,418.5,383.7,441.1,355.9,441.1z"/>
	<path class="st0" d="M464.9,416.4l-5.1-3.1c2.1-7.2,2.1-14.4,2.1-22.6c0-8.2-1-14.4-2.1-22.6l5.1-3.1c4.1-2.1,6.2-5.1,7.2-9.3
		c1-4.1,1-8.2-2.1-12.3l-16.4-27.8c-2.1-4.1-5.1-6.2-9.3-7.2c-4.1-1-8.2-1-12.3,2.1l-5.1,3.1c-11.3-10.3-24.7-17.5-39.1-21.6v-5.1
		c0-8.2-7.2-15.4-15.4-15.4h-32.9c-9.3,0-15.4,7.2-15.4,15.4v5.1c-14.4,4.1-27.8,12.3-39.1,21.6l-5.1-3.1c-4.1-2.1-8.2-3.1-12.3-2.1
		s-7.2,4.1-9.3,7.2l-16.4,27.8c-2.1,4.1-3.1,8.2-2.1,12.3c1,4.1,4.1,7.2,7.2,9.3l5.1,3.1c-2.1,7.2-2.1,14.4-2.1,22.6
		c0,8.2,1,14.4,2.1,22.6l-5.1,3.1c-4.1,2.1-6.2,5.1-7.2,9.3c-1,4.1-1,8.2,2.1,12.3l16.4,27.8c4.1,7.2,14.4,10.3,21.6,6.2l5.1-3.1
		c11.3,10.3,24.7,17.5,39.1,21.6v5.1c0,8.2,7.2,15.4,15.4,15.4h32.9c9.3,0,15.4-7.2,15.4-15.4v-5.1c14.4-4.1,27.8-12.3,39.1-21.6
		l5.1,3.1c7.2,4.1,17.5,2.1,21.6-6.2L470,438c2.1-4.1,3.1-8.2,2.1-12.3C471,422.6,468,418.5,464.9,416.4z M443.3,368.1
		c2.1,8.2,3.1,16.4,3.1,23.6c0,7.2-1,15.4-3.1,23.6c-1,3.1,1,7.2,3.1,8.2l10.3,5.1l0,0l0,0l0,0l-16.4,29.8c0,0,0,0-1,0l-10.3-5.1
		c-3.1-2.1-7.2-1-9.3,1c-11.3,11.3-25.7,19.5-42.1,23.6c-3.1,1-6.2,4.1-6.2,7.2v11.3l0,0h-32.9l0,0v-11.3c0-3.1-2.1-6.2-6.2-7.2
		c-16.4-4.1-30.8-12.3-42.1-23.6c-1-1-3.1-2.1-5.1-2.1c-1,0-3.1,0-4.1,1l-10.3,5.1h-1l-14.4-27.8l0,0l0,0l10.3-5.1
		c3.1-2.1,4.1-5.1,3.1-8.2c-2.1-8.2-3.1-16.4-3.1-23.6s1-15.4,3.1-23.6c1-3.1-1-7.2-3.1-8.2l-10.3-5.1l0,0l0,0l16.4-27.8
		c0,0,0,0,1,0l10.3,5.1c3.1,2.1,7.2,1,9.3-1c11.3-11.3,25.7-19.5,42.1-23.6c3.1-1,6.2-4.1,6.2-7.2V291l0,0h32.9l0,0v11.3
		c0,3.1,2.1,6.2,6.2,7.2c16.4,4.1,30.8,12.3,42.1,23.6c2.1,2.1,6.2,3.1,9.3,1l10.3-5.1h1l16.4,27.8l0,0l0,0l-10.3,5.1
		C444.3,360.9,442.3,365,443.3,368.1z"/>
	<path class="st1" d="M94.8,142h16.4c4.1,0,7.2-3.1,7.2-7.2c0-4.1-3.1-7.2-7.2-7.2H94.8c-4.1,0-7.2,3.1-7.2,7.2
		C87.7,138.9,90.7,142,94.8,142z"/>
	<path class="st1" d="M143.2,142h16.4c4.1,0,7.2-3.1,7.2-7.2c0-4.1-3.1-7.2-7.2-7.2h-16.4c-4.1,0-7.2,3.1-7.2,7.2
		C136,138.9,139,142,143.2,142z"/>
	<path class="st1" d="M274.7,126.6h-82.2c-4.1,0-7.2,3.1-7.2,7.2c0,4.1,3.1,7.2,7.2,7.2h82.2c4.1,0,7.2-3.1,7.2-7.2
		C281.9,129.7,278.8,126.6,274.7,126.6z"/>
	<path class="st1" d="M217.2,174.9c0-4.1-3.1-7.2-7.2-7.2h-65.8c-4.1,0-7.2,3.1-7.2,7.2c0,4.1,3.1,7.2,7.2,7.2H210
		C213.1,182.1,217.2,179,217.2,174.9z"/>
	<path class="st1" d="M233.6,174.9c0,4.1,3.1,7.2,7.2,7.2h57.6c4.1,0,7.2-3.1,7.2-7.2c0-4.1-3.1-7.2-7.2-7.2h-57.6
		C237.7,166.7,233.6,170.8,233.6,174.9z"/>
	<path class="st1" d="M94.8,182.1h16.4c4.1,0,7.2-3.1,7.2-7.2c0-4.1-3.1-7.2-7.2-7.2H94.8c-4.1,0-7.2,3.1-7.2,7.2
		C87.7,179,90.7,182.1,94.8,182.1z"/>
	<path class="st1" d="M94.8,222.2h16.4c4.1,0,7.2-3.1,7.2-7.2s-3.1-7.2-7.2-7.2H94.8c-4.1,0-7.2,3.1-7.2,7.2S90.7,222.2,94.8,222.2z
		"/>
	<path class="st1" d="M200.7,222.2h138.8c4.1,0,7.2-3.1,7.2-7.2s-3.1-7.2-7.2-7.2H200.7c-4.1,0-7.2,3.1-7.2,7.2
		S196.6,222.2,200.7,222.2z"/>
	<path class="st1" d="M143.2,207.8c-4.1,0-7.2,3.1-7.2,7.2c0,4.1,3.1,7.2,7.2,7.2h24.7c4.1,0,7.2-3.1,7.2-7.2c0-4.1-3.1-7.2-7.2-7.2
		H143.2z"/>
	<path class="st1" d="M233.6,247.9h-90.4c-4.1,0-7.2,3.1-7.2,7.2s3.1,7.2,7.2,7.2h90.4c4.1,0,7.2-3.1,7.2-7.2
		S237.7,247.9,233.6,247.9z"/>
	<path class="st1" d="M136,327h32.9c4.1,0,7.2-3.1,7.2-7.2c0-4.1-3.1-7.2-7.2-7.2H136c-4.1,0-7.2,3.1-7.2,7.2
		C128.8,323.9,130.8,327,136,327z"/>
	<path class="st1" d="M94.8,262.3h16.4c4.1,0,7.2-3.1,7.2-7.2s-3.1-7.2-7.2-7.2H94.8c-4.1,0-7.2,3.1-7.2,7.2S90.7,262.3,94.8,262.3z
		"/>
	<path class="st1" d="M88.7,325c2.1,1,4.1,2.1,6.2,2.1c2.1,0,4.1-1,5.1-2.1l16.4-16.4c3.1-3.1,3.1-8.2,0-10.3L100,281.8
		c-3.1-3.1-8.2-3.1-11.3,0c-3.1,3.1-3.1,8.2,0,10.3l11.3,10.3l-11.3,10.3C86.6,316.7,86.6,321.9,88.7,325z"/>
</g>
</svg>
