<?xml version="1.0" encoding="utf-8"?>
<!-- Generator: Adobe Illustrator 22.0.0, SVG Export Plug-In . SVG Version: 6.00 Build 0)  -->
<svg version="1.1" id="Capa_1" xmlns="http://www.w3.org/2000/svg" xmlns:xlink="http://www.w3.org/1999/xlink" x="0px" y="0px"
	 viewBox="0 0 511 511" style="enable-background:new 0 0 511 511;" xml:space="preserve">
<style type="text/css">
	.st0{fill:#3399CC;}
	.st1{fill:#222B37;}
</style>
<g>
	<path class="st0" d="M426.4,344.8c0-2.6-0.1-5-0.2-7.5c-0.8-20.2-5.2-40-12.6-58.4c-0.1-0.3-0.2-0.6-0.3-0.9
		c-0.1-0.3-0.3-0.6-0.5-0.9c-8.3-20-20.3-38.4-35.6-54.3l-0.1-0.1c-0.2-0.5-0.6-0.9-1-1.4c-0.4-0.4-0.9-0.7-1.4-1
		c-15.7-15.7-33.8-28.1-53.6-36.5c-0.2-0.1-0.4-0.3-0.7-0.4c-0.2-0.1-0.5-0.2-0.7-0.2c-17-7.1-35.2-11.5-53.8-12.8
		c-3.6-0.2-7.3-0.3-10.9-0.3c-0.1,0-0.1,0-0.2,0c-0.1,0-0.2,0-0.2,0c-20.3,0-40.1,3.6-59.1,10.7c-21.6,8.2-41.1,20.4-58,36.6
		c-1.3,1.2-2.5,2.4-3.8,3.8l-0.1,0.1l-0.1,0.1c-15,15.3-26.9,33-35.5,52.8c-9.7,22.3-14.6,46.1-14.6,70.7
		c0,35.2,10.2,69.1,29.5,98.1c5.2,7.9,14,12.5,23.4,12.5h9.7c3,0,5.4-2.4,5.4-5.5s-2.4-5.5-5.4-5.5h-9.7c-5.8,0-11.3-2.9-14.5-7.8
		c-5.1-7.8-9.6-15.8-13.3-24.2l16.1-6.8c2.7-1.1,4-4.4,2.9-7.1c-1.1-2.8-4.3-4.1-7-3l-16.1,6.8c-6.1-16.6-9.6-34.2-10.2-52.1h17.4
		c3,0,5.4-2.4,5.4-5.5s-2.4-5.5-5.4-5.5H94.3c0.6-18,4-35.5,10.1-52.2l16.2,6.8c0.7,0.3,1.4,0.4,2.1,0.4c2.1,0,4.1-1.2,5-3.4
		c1.1-2.8-0.2-6-2.9-7.1l-16.1-6.8c7.3-16.3,17-31.1,29-44.2l12.3,12.5c1,1,2.4,1.6,3.8,1.6s2.7-0.5,3.8-1.6c2.1-2.1,2.1-5.6,0-7.8
		L145.3,225c13-12.4,27.6-22.3,43.3-29.7l6.7,16.5c0.9,2.1,2.9,3.4,5,3.4c0.7,0,1.4-0.1,2.1-0.4c2.7-1.1,4-4.4,2.9-7.1l-6.7-16.5
		c16.2-6.2,33.4-9.7,51.2-10.3v17.7c0,3.1,2.4,5.5,5.4,5.5s5.4-2.4,5.4-5.5v-17.7c1.7,0.1,3.4,0.1,5.1,0.2
		c15.9,1,31.4,4.5,46.1,10.2l-6.7,16.4c-1.1,2.8,0.2,6,2.9,7.1c0.7,0.3,1.4,0.4,2.1,0.4c2.1,0,4.1-1.2,5-3.4l6.6-16.4
		c15.7,7.3,30.3,17.3,43.2,29.7l-12.6,12.5c-2.1,2.1-2.1,5.6,0,7.8c1,1,2.4,1.6,3.8,1.6s2.7-0.5,3.8-1.6l12.2-12.4
		c12.1,13.2,21.8,28.1,29,44.1l-16,6.7c-2.7,1.1-4,4.4-2.9,7.1c0.9,2.1,2.9,3.4,5,3.4c0.7,0,1.4-0.1,2.1-0.4l16.1-6.7
		c6,16.1,9.5,33.2,10.2,50.5c0,0.5,0,1.1,0.1,1.6h-17.4c-3,0-5.4,2.4-5.4,5.5s2.4,5.5,5.4,5.5h17.4c-0.6,18.1-4,35.6-10.1,52.2
		l-16.2-6.8c-2.7-1.1-5.9,0.2-7,3c-1.1,2.8,0.2,6,2.9,7.1l16.1,6.8c-3.7,8.4-8.2,16.4-13.3,24.2c-3.2,4.8-8.6,7.8-14.5,7.8h-9.7
		c-3,0-5.4,2.4-5.4,5.5s2.4,5.5,5.4,5.5h9.7c9.4,0,18.1-4.7,23.4-12.5c19.4-29.2,29.5-62.8,29.5-98
		C426.4,344.9,426.4,344.9,426.4,344.8C426.4,344.9,426.4,344.8,426.4,344.8z"/>
</g>
<g>
	<path class="st1" d="M471.5,52h-432C17.7,52,0,70.1,0,92.3v326.4C0,440.9,17.7,459,39.5,459h432c21.8,0,39.5-18.1,39.5-40.3V92.3
		C511,70.1,493.3,52,471.5,52z M39.5,67.3h432c13.5,0,24.5,11.2,24.5,25v25H15v-25C15,78.5,26,67.3,39.5,67.3z M471.5,443.7h-432
		c-13.5,0-24.5-11.2-24.5-25V132.6h481v286.1C496,432.5,485,443.7,471.5,443.7z"/>
	<path class="st1" d="M39.5,99.9c2,0,3.9-0.8,5.3-2.2c1.4-1.4,2.2-3.4,2.2-5.4s-0.8-4-2.2-5.4s-3.3-2.2-5.3-2.2s-3.9,0.8-5.3,2.2
		c-1.4,1.4-2.2,3.4-2.2,5.4s0.8,4,2.2,5.4C35.6,99.1,37.5,99.9,39.5,99.9z"/>
	<path class="st1" d="M63.5,99.9c2,0,3.9-0.8,5.3-2.2c1.4-1.4,2.2-3.4,2.2-5.4s-0.8-4-2.2-5.4c-1.4-1.4-3.3-2.2-5.3-2.2
		c-2,0-3.9,0.8-5.3,2.2c-1.4,1.4-2.2,3.4-2.2,5.4s0.8,4,2.2,5.4C59.6,99.1,61.5,99.9,63.5,99.9z"/>
	<path class="st1" d="M87.5,99.9c2,0,3.9-0.8,5.3-2.2c1.4-1.4,2.2-3.4,2.2-5.4s-0.8-4-2.2-5.4c-1.4-1.4-3.3-2.2-5.3-2.2
		s-3.9,0.8-5.3,2.2c-1.4,1.4-2.2,3.4-2.2,5.4s0.8,4,2.2,5.4C83.6,99.1,85.5,99.9,87.5,99.9z"/>
	<path class="st0" d="M278.5,267.5c-3.3-1-6.8,0.8-7.8,4.2l-46.6,149.4c-1,3.4,0.8,6.9,4.1,8c0.6,0.2,1.3,0.3,1.9,0.3
		c2.6,0,5.1-1.7,5.9-4.5l46.6-149.4C283.6,272.2,281.8,268.6,278.5,267.5z"/>
	<path class="st0" d="M307.7,282.6c-2.4-2.4-6.4-2.4-8.8,0s-2.4,6.5,0,9l55.5,56.6l-55.5,56.7c-2.4,2.4-2.4,6.5,0,9
		c1.2,1.2,2.8,1.8,4.4,1.8s3.2-0.6,4.4-1.8l59.9-61.1c2.4-2.4,2.4-6.5,0-9L307.7,282.6z"/>
	<path class="st0" d="M207.8,282.6c-2.4-2.4-6.4-2.4-8.8,0l-60,61.2c-2.4,2.4-2.4,6.5,0,9l59.9,61.1c1.2,1.2,2.8,1.8,4.4,1.8
		s3.2-0.6,4.4-1.8c2.4-2.4,2.4-6.5,0-9l-55.5-56.6l55.5-56.6C210.2,289.2,210.2,285.2,207.8,282.6z"/>
	<path class="st1" d="M119.5,99.9h304c4.1,0,7.5-3.5,7.5-7.7c0-4.2-3.4-7.7-7.5-7.7h-304c-4.1,0-7.5,3.5-7.5,7.7
		C112,96.5,115.4,99.9,119.5,99.9z"/>
	<path class="st1" d="M455.5,99.9h16c4.1,0,7.5-3.5,7.5-7.7c0-4.2-3.4-7.7-7.5-7.7h-16c-4.1,0-7.5,3.5-7.5,7.7
		C448,96.5,451.4,99.9,455.5,99.9z"/>
</g>
</svg>
