<?xml version="1.0" encoding="utf-8"?>
<!-- Generator: Adobe Illustrator 22.0.0, SVG Export Plug-In . SVG Version: 6.00 Build 0)  -->
<svg version="1.1" id="Capa_1" xmlns="http://www.w3.org/2000/svg" xmlns:xlink="http://www.w3.org/1999/xlink" x="0px" y="0px"
	 viewBox="0 0 511 511" style="enable-background:new 0 0 511 511;" xml:space="preserve">
<style type="text/css">
	.st0{fill:#222B37;}
	.st1{fill:#3399CC;}
</style>
<g>
	<path class="st0" d="M487.5,52h-464C10.5,52,0,62.5,0,75.5v304c0,13,10.5,23.5,23.5,23.5h158.1l-11.7,41h-34.3
		c-4.1,0-7.5,3.4-7.5,7.5s3.4,7.5,7.5,7.5h40l0,0l0,0h159.9l0,0l0,0h40c4.1,0,7.5-3.4,7.5-7.5s-3.4-7.5-7.5-7.5h-34.3l-11.7-41
		h158.1c13,0,23.5-10.5,23.5-23.5v-304C511,62.5,500.5,52,487.5,52z M325.6,444H185.4l11.7-41h116.7L325.6,444z M496,379.5
		c0,4.7-3.8,8.5-8.5,8.5H319.7l0,0H23.5c-4.7,0-8.5-3.8-8.5-8.5v-304c0-4.7,3.8-8.5,8.5-8.5h464c4.7,0,8.5,3.8,8.5,8.5V379.5z"/>
	<path class="st0" d="M471.5,84h-432c-4.1,0-7.5,3.4-7.5,7.5v272c0,4.1,3.4,7.5,7.5,7.5h432c4.1,0,7.5-3.4,7.5-7.5v-272
		C479,87.4,475.6,84,471.5,84z M464,99v49H47V99H464z M47,163h105v193H47V163z M167,356V163h297v193H167z"/>
	<path class="st1" d="M71.5,131h24c4.1,0,7.5-3.4,7.5-7.5s-3.4-7.5-7.5-7.5h-24c-4.1,0-7.5,3.4-7.5,7.5S67.4,131,71.5,131z"/>
	<path class="st1" d="M127.5,131h24c4.1,0,7.5-3.4,7.5-7.5s-3.4-7.5-7.5-7.5h-24c-4.1,0-7.5,3.4-7.5,7.5S123.4,131,127.5,131z"/>
	<path class="st1" d="M183.5,131h24c4.1,0,7.5-3.4,7.5-7.5s-3.4-7.5-7.5-7.5h-24c-4.1,0-7.5,3.4-7.5,7.5S179.4,131,183.5,131z"/>
	<path class="st1" d="M239.5,131h24c4.1,0,7.5-3.4,7.5-7.5s-3.4-7.5-7.5-7.5h-24c-4.1,0-7.5,3.4-7.5,7.5S235.4,131,239.5,131z"/>
	<path class="st1" d="M295.5,131h80c4.1,0,7.5-3.4,7.5-7.5s-3.4-7.5-7.5-7.5h-80c-4.1,0-7.5,3.4-7.5,7.5S291.4,131,295.5,131z"/>
	<path class="st1" d="M439.5,131c2,0,3.9-0.8,5.3-2.2c1.4-1.4,2.2-3.3,2.2-5.3s-0.8-3.9-2.2-5.3c-1.4-1.4-3.3-2.2-5.3-2.2
		s-3.9,0.8-5.3,2.2c-1.4,1.4-2.2,3.3-2.2,5.3s0.8,3.9,2.2,5.3C435.6,130.2,437.5,131,439.5,131z"/>
	<path class="st1" d="M407.5,131c2,0,3.9-0.8,5.3-2.2c1.4-1.4,2.2-3.3,2.2-5.3s-0.8-3.9-2.2-5.3c-1.4-1.4-3.3-2.2-5.3-2.2
		s-3.9,0.8-5.3,2.2c-1.4,1.4-2.2,3.3-2.2,5.3s0.8,3.9,2.2,5.3C403.6,130.2,405.5,131,407.5,131z"/>
	<path class="st1" d="M71.5,195h56c4.1,0,7.5-3.4,7.5-7.5s-3.4-7.5-7.5-7.5h-56c-4.1,0-7.5,3.4-7.5,7.5S67.4,195,71.5,195z"/>
	<path class="st0" d="M191.5,195h56c4.1,0,7.5-3.4,7.5-7.5s-3.4-7.5-7.5-7.5h-56c-4.1,0-7.5,3.4-7.5,7.5S187.4,195,191.5,195z"/>
	<path class="st0" d="M279.5,195h32c4.1,0,7.5-3.4,7.5-7.5s-3.4-7.5-7.5-7.5h-32c-4.1,0-7.5,3.4-7.5,7.5S275.4,195,279.5,195z"/>
	<path class="st0" d="M191.5,227h56c4.1,0,7.5-3.4,7.5-7.5s-3.4-7.5-7.5-7.5h-56c-4.1,0-7.5,3.4-7.5,7.5S187.4,227,191.5,227z"/>
	<path class="st0" d="M351.5,244h-136c-4.1,0-7.5,3.4-7.5,7.5s3.4,7.5,7.5,7.5h136c4.1,0,7.5-3.4,7.5-7.5S355.6,244,351.5,244z"/>
	<path class="st0" d="M407.5,244h-24c-4.1,0-7.5,3.4-7.5,7.5s3.4,7.5,7.5,7.5h24c4.1,0,7.5-3.4,7.5-7.5S411.6,244,407.5,244z"/>
	<path class="st0" d="M311.5,308h-32c-4.1,0-7.5,3.4-7.5,7.5s3.4,7.5,7.5,7.5h32c4.1,0,7.5-3.4,7.5-7.5S315.6,308,311.5,308z"/>
	<path class="st0" d="M279.5,227h32c4.1,0,7.5-3.4,7.5-7.5s-3.4-7.5-7.5-7.5h-32c-4.1,0-7.5,3.4-7.5,7.5S275.4,227,279.5,227z"/>
	<path class="st0" d="M247.5,276h-56c-4.1,0-7.5,3.4-7.5,7.5s3.4,7.5,7.5,7.5h56c4.1,0,7.5-3.4,7.5-7.5S251.6,276,247.5,276z"/>
	<path class="st0" d="M311.5,276h-32c-4.1,0-7.5,3.4-7.5,7.5s3.4,7.5,7.5,7.5h32c4.1,0,7.5-3.4,7.5-7.5S315.6,276,311.5,276z"/>
	<path class="st1" d="M127.5,276h-56c-4.1,0-7.5,3.4-7.5,7.5s3.4,7.5,7.5,7.5h56c4.1,0,7.5-3.4,7.5-7.5S131.6,276,127.5,276z"/>
	<path class="st1" d="M127.5,212h-32c-4.1,0-7.5,3.4-7.5,7.5s3.4,7.5,7.5,7.5h32c4.1,0,7.5-3.4,7.5-7.5S131.6,212,127.5,212z"/>
	<path class="st1" d="M127.5,244h-32c-4.1,0-7.5,3.4-7.5,7.5s3.4,7.5,7.5,7.5h32c4.1,0,7.5-3.4,7.5-7.5S131.6,244,127.5,244z"/>
	<path class="st1" d="M127.5,308h-32c-4.1,0-7.5,3.4-7.5,7.5s3.4,7.5,7.5,7.5h32c4.1,0,7.5-3.4,7.5-7.5S131.6,308,127.5,308z"/>
</g>
</svg>
